# xmcd CD database file
#
# Track frame offsets:
#	150
#	17490
#	37865
#	57680
#	84147
#	106992
#	128132
#	148035
#	172085
#	193862
#	214967
#	244192
#	264525
#	287367
#
# Disc length: 4101 seconds
#
# Revision: 0
# Processed by: cddbd v1.4PL0 Copyright (c) Steve Scherf et al.
# Submitted via: CDex 1.50
#
DISCID=c810030e
DTITLE=Ben Webster - In Copenhagen
DYEAR=1965
DGENRE=Jazz
TTITLE0=Stardust
TTITLE1=What's New
TTITLE2=Autumn Leaves
TTITLE3=Easy To Love
TTITLE4=Yesterdays
TTITLE5=Close Your Eyes
TTITLE6=There Is No Greater Love
TTITLE7=Days Of Wine And Roses
TTITLE8=My Romance
TTITLE9=What's I'm Gotchere?
TTITLE10=Stompy Jones
TTITLE11=Blue Light
TTITLE12=Brother John's Blues
TTITLE13=Nancy, With The Laughing Face
EXTD=YEAR: 1965
EXTT0=
EXTT1=
EXTT2=
EXTT3=
EXTT4=
EXTT5=
EXTT6=
EXTT7=
EXTT8=
EXTT9=
EXTT10=
EXTT11=
EXTT12=
EXTT13=
PLAYORDER=
